<?xml version="1.0" encoding="UTF-8"?>
<svg version="1.1" xmlns="http://www.w3.org/2000/svg" width="494" height="378">
<path d="M0 0 C4.30917916 3.25582425 6.11674879 6.93346405 8.10546875 11.81640625 C8.94897779 14.00363212 8.94897779 14.00363212 10.1015625 15.95703125 C11.20774408 18.47239198 11.23244806 20.38725424 11.1875 23.125 C11.17783203 24.42824219 11.17783203 24.42824219 11.16796875 25.7578125 C11 28 11 28 10 30 C9.9283265 32.55157655 9.90691558 35.07472971 9.9375 37.625 C9.94426758 38.68460938 9.94426758 38.68460938 9.95117188 39.765625 C9.96296125 41.51045275 9.98089676 43.255237 10 45 C9.36449219 45.10957031 8.72898438 45.21914063 8.07421875 45.33203125 C7.38972656 45.55246094 6.70523438 45.77289063 6 46 C4.28573271 49.87965756 3.59763324 53.81656731 3 58 C6.90050501 54.89732556 9.89028492 51.9122222 13 48 C16.14675128 45.25667837 19.42057115 43.12830904 23 41 C23.66 40.34 24.32 39.68 25 39 C25.99 39 26.98 39 28 39 C28 38.34 28 37.68 28 37 C30.484375 35.2734375 30.484375 35.2734375 33.75 33.375 C34.81734375 32.74335937 35.8846875 32.11171875 36.984375 31.4609375 C40 30 40 30 44 30 C44.33 28.02 44.66 26.04 45 24 C46.65 24.33 48.3 24.66 50 25 C50.33 23.68 50.66 22.36 51 21 C52.10794922 21.29777344 52.10794922 21.29777344 53.23828125 21.6015625 C56.34036967 22.04910567 57.40744939 21.70172725 60.1875 20.375 C89.02315496 8.08998723 129.28062278 5.77397773 159 16 C159.94617188 16.26039062 160.89234375 16.52078125 161.8671875 16.7890625 C170.52359321 19.19486876 178.16954 22.83130442 186.07543945 27.00219727 C188.05406032 28.02802798 190.05571643 28.99546321 192.0625 29.96484375 C195.85401366 31.856688 199.26713045 34.06976474 202.6875 36.5625 C203.28054932 36.99159668 203.87359863 37.42069336 204.48461914 37.86279297 C210.93438383 42.5931329 217.06560724 47.6396425 223 53 C223.78117187 53.69996094 224.56234375 54.39992187 225.3671875 55.12109375 C228.87576455 58.62262546 230.44664262 61.17100472 230.75 66.1875 C230.46573736 69.67373998 229.98722543 71.02019206 228.0625 74.0625 C224.02666631 76.61578254 220.76144375 77.40365181 216 77 C213.17691096 75.7901047 211.38524678 74.80184226 209 73 C208.30132812 72.47792969 207.60265625 71.95585938 206.8828125 71.41796875 C204.56422797 69.64092213 202.27996039 67.82627519 200 66 C197.02080383 63.63863362 194.02256623 61.30560939 191 59 C190.26523437 58.43410156 189.53046875 57.86820313 188.7734375 57.28515625 C160.5133446 36.44451918 121.82005345 28.7897652 87.3984375 33.859375 C82.65538028 34.65185128 77.93979316 35.56100286 73.23242188 36.54248047 C70.49960538 37.10255244 67.75552306 37.56659819 65 38 C65.165 38.99 65.33 39.98 65.5 41 C65.91463169 43.82179898 66.04117091 46.52391426 66 49.375 C66 50.57125 66 51.7675 66 53 C66.33 53.33 66.66 53.66 67 54 C69.15865423 53.60644943 71.30326041 53.13459938 73.4375 52.625 C74.61183594 52.34914062 75.78617187 52.07328125 76.99609375 51.7890625 C79.89746265 51.13681107 79.89746265 51.13681107 82 50 C84.2072923 49.92907158 86.41667452 49.91584975 88.625 49.9375 C89.81351562 49.94652344 91.00203125 49.95554688 92.2265625 49.96484375 C93.14179688 49.97644531 94.05703125 49.98804688 95 50 C95.37125 48.989375 95.7425 47.97875 96.125 46.9375 C98.01027989 42.63204686 100.30769501 38.97226365 104 36 C110.05686867 34.28388721 116.06310695 34.86575195 122 37 C125.28010578 40.08131149 125.2014422 43.39610575 125.55859375 47.69140625 C125.64294678 48.68470947 125.7272998 49.6780127 125.81420898 50.70141602 C125.87552002 51.45994873 125.93683105 52.21848145 126 53 C126.65895264 53.15033691 127.31790527 53.30067383 127.99682617 53.45556641 C151.98966961 58.99866112 151.98966961 58.99866112 163 65 C163.91136719 65.46019531 164.82273437 65.92039062 165.76171875 66.39453125 C185.75558244 76.74798705 202.44533621 91.63742281 214 111 C214.89912109 112.47533203 214.89912109 112.47533203 215.81640625 113.98046875 C233.65092916 143.75603291 238.66934257 179.0284778 230.29980469 212.82763672 C220.35051489 247.02440953 198.9525512 275.53831076 167.76147461 293.04223633 C143.68208162 306.13488479 113.38798455 313.3506518 86.3527832 305.82983398 C69.78262087 300.68514393 56.52353535 288.34633289 48.47265625 273.109375 C41.79990417 258.95153581 39.80026241 242.23395382 44 227 C44.33515625 225.77152344 44.6703125 224.54304687 45.015625 223.27734375 C49.97279495 207.13090682 61.19737125 194.02885724 76 186 C79.60627106 184.34035006 83.17916314 183.06628005 87 182 C87.67675781 181.78859375 88.35351562 181.5771875 89.05078125 181.359375 C94.26683231 179.94141937 99.50483059 179.75702999 104.875 179.5 C107.91713197 179.34102288 110.95860234 179.17237231 114 179 C114.97066406 178.94972656 115.94132812 178.89945313 116.94140625 178.84765625 C127.47280205 177.64453905 139.45695961 171.04462075 147.44921875 164.17578125 C150 162 150 162 152 162 C152.25136719 161.44570312 152.50273437 160.89140625 152.76171875 160.3203125 C154.20687697 157.61235042 155.95160839 155.31586357 157.8125 152.875 C167.43011559 139.74896202 171.70158537 125.19734462 169.53125 108.828125 C167.54583622 96.47621179 163.54875919 86.97578343 156 77 C155.360625 76.0925 154.72125 75.185 154.0625 74.25 C151.06408113 70.9789976 147.61894299 68.54547322 144 66 C143.28457031 65.46890625 142.56914062 64.9378125 141.83203125 64.390625 C136.49038519 60.57111171 131.37728893 58.51776814 125 57 C124.99613281 57.88751953 124.99613281 57.88751953 124.9921875 58.79296875 C124.77900455 63.14900711 124.444361 65.43554144 121.6875 68.9375 C117.10818846 72.15182444 111.40260125 72.31163768 106 73 C104.37050115 73.26538261 102.74453635 73.55438113 101.125 73.875 C100.13886719 74.05675781 100.13886719 74.05675781 99.1328125 74.2421875 C95.78630552 75.43123943 93.66660244 76.60080059 91 79 C90.12348648 82.14177897 90.06860481 85.25107234 90 88.5 C89.81976916 97.03521752 89.81976916 97.03521752 86.8359375 100.546875 C81.41337677 103.36025379 74.56142704 102.68450281 68.625 102.75 C67.31660156 102.77964844 66.00820313 102.80929688 64.66015625 102.83984375 C61.44004273 102.91035718 58.22064569 102.96314905 55 103 C54.87882812 103.61230469 54.75765625 104.22460938 54.6328125 104.85546875 C53.66533047 108.13415785 51.48003126 109.6817099 49 112 C47.80696562 113.16100661 46.61970319 114.3279663 45.4375 115.5 C44.83164062 116.09296875 44.22578125 116.6859375 43.6015625 117.296875 C41.83540659 119.05964171 41.83540659 119.05964171 40.3125 121.75 C36.41645961 125.540742 31.21264004 125.98624083 26 127 C25.13761719 127.185625 24.27523438 127.37125 23.38671875 127.5625 C16.27549494 128.86603039 9.53228543 128.19462134 3 125 C1.30291114 123.70561019 -0.37064759 122.37868281 -2 121 C-2.18175781 121.93199219 -2.36351562 122.86398438 -2.55078125 123.82421875 C-2.80214844 125.09910156 -3.05351562 126.37398437 -3.3125 127.6875 C-3.44567627 128.37593994 -3.57885254 129.06437988 -3.71606445 129.77368164 C-4.33328127 132.90894058 -4.9917865 135.97114174 -5.8671875 139.046875 C-9.83285063 153.02111652 -9.63876614 169.33009651 -5.671875 183.2890625 C-4.63191851 187.48516602 -4.52293618 191.70642559 -5 196 C-5.33 196.33 -5.66 196.66 -6 197 C-8.41445332 196.9612973 -10.78132907 196.85399334 -13.1875 196.6875 C-14.50105469 196.60886719 -15.81460938 196.53023437 -17.16796875 196.44921875 C-20.74196177 196.03024913 -23.63001743 195.20525323 -27 194 C-29.66701495 193.52725153 -32.30183576 193.27912044 -35 193 C-37.10203918 199.83162733 -35.72298906 204.64089415 -32.5625 210.75 C-31.08849727 213.52776485 -29.55797005 216.26858862 -28 219 C-27.65163086 219.61987793 -27.30326172 220.23975586 -26.94433594 220.87841797 C-24.01658767 226.08721746 -21.05308405 231.27350168 -17.94140625 236.375 C-13.66515629 243.67129772 -11.89247322 248.61151013 -13 257 C-13.07541016 257.68868164 -13.15082031 258.37736328 -13.22851562 259.08691406 C-14.51118905 270.59670498 -17.17298376 280.47178348 -22 291 C-22.75022526 292.68739986 -23.50026055 294.37488423 -24.25 296.0625 C-24.56839844 296.74957031 -24.88679687 297.43664062 -25.21484375 298.14453125 C-26.13614421 300.1884289 -26.13614421 300.1884289 -26.8125 303.25 C-28.11163884 306.25853205 -28.71539382 306.64671694 -31.375 308.3125 C-35.32375382 310.83577008 -36.51374892 313.65451316 -38.16796875 317.94140625 C-39 320 -39 320 -40.5625 322 C-43.60078711 326.22718206 -44.89612452 331.16486643 -45.1875 336.3125 C-43.70525445 339.66705572 -41.89108199 340.56431022 -38.59375 342.00390625 C-36.6404232 342.75405434 -34.68099571 343.48834564 -32.71875 344.21484375 C-31.5740625 344.63894531 -30.429375 345.06304687 -29.25 345.5 C-28.16203125 345.8815625 -27.0740625 346.263125 -25.953125 346.65625 C-22.86810431 348.06001603 -21.12266027 349.37608501 -19 352 C-18.8125 354.5625 -18.8125 354.5625 -20 357 C-26.21451114 360.5992377 -32.13615436 360.46260716 -39.1875 360.375 C-40.32920654 360.36774902 -41.47091309 360.36049805 -42.6472168 360.35302734 C-54.1712893 360.16820504 -67.33614139 359.89558379 -78 355 C-78.94627465 345.53725349 -75.17110281 338.75665422 -70 331 C-69.75849227 328.48415109 -69.75849227 328.48415109 -69.875 325.8125 C-69.89304688 324.91144531 -69.91109375 324.01039063 -69.9296875 323.08203125 C-69.95289063 322.39496094 -69.97609375 321.70789063 -70 321 C-70.78375 320.9175 -71.5675 320.835 -72.375 320.75 C-75 320 -75 320 -76.3125 318.375 C-77.41263894 314.57452004 -77.80072946 310.60145892 -76 307 C-77.175625 307.0928125 -77.175625 307.0928125 -78.375 307.1875 C-79.24125 307.125625 -80.1075 307.06375 -81 307 C-83.47877942 303.28183087 -83.21890552 301.42815025 -83.16015625 296.99609375 C-83.15495468 296.31700455 -83.14975311 295.63791534 -83.14439392 294.93824768 C-83.12659721 292.7711131 -83.09542366 290.60445345 -83.0625 288.4375 C-83.03488579 286.2670227 -83.01018089 284.09661208 -82.99131775 281.92604065 C-82.9734546 279.9590061 -82.94605666 277.99206508 -82.91821289 276.02514648 C-82.78450845 273.07858512 -82.78450845 273.07858512 -84 271 C-85.15048828 270.35611328 -85.15048828 270.35611328 -86.32421875 269.69921875 C-89.39120739 267.75156903 -90.81631925 265.82634153 -92.8125 262.8125 C-93.41707031 261.91144531 -94.02164063 261.01039063 -94.64453125 260.08203125 C-95.09183594 259.39496094 -95.53914062 258.70789063 -96 258 C-97.3303125 259.1446875 -97.3303125 259.1446875 -98.6875 260.3125 C-102.82469794 263.86107222 -106.99160876 267.37414809 -111.15771484 270.88867188 C-114.24165156 273.49521625 -117.29497961 276.12893443 -120.3125 278.8125 C-130.79507086 288.00968162 -130.79507086 288.00968162 -136 289 C-135.87625 290.0725 -135.7525 291.145 -135.625 292.25 C-135.74875 293.4875 -135.8725 294.725 -136 296 C-138.75 298.125 -138.75 298.125 -142 300 C-142.680625 300.886875 -143.36125 301.77375 -144.0625 302.6875 C-146 305 -146 305 -148.75 305.8125 C-149.4925 305.874375 -150.235 305.93625 -151 306 C-151.02578125 306.57878906 -151.0515625 307.15757812 -151.078125 307.75390625 C-152.50761779 311.23678063 -155.54867718 312.30119633 -158.75 313.9375 C-163.60419182 316.45019888 -167.2493333 318.90529733 -171 323 C-173 325 -173 325 -175.4375 325.1875 C-176.7059375 325.5896875 -176.7059375 325.5896875 -178 326 C-178.65993741 327.71583727 -179.31485743 329.43407515 -179.92578125 331.16796875 C-181.72908341 334.24341862 -184.73005004 335.21737449 -187.84765625 336.73828125 C-191.02563805 338.6012361 -192.14966101 340.8686571 -194 344 C-194.99 344.33 -195.98 344.66 -197 345 C-195.52568447 349.01722409 -194.15759137 351.2330721 -190.3828125 353.16015625 C-188.97198052 353.81283086 -187.5522652 354.44659006 -186.125 355.0625 C-180.76963197 357.42803141 -176.9066014 359.58017841 -173 364 C-174.625 369.75 -174.625 369.75 -178 372 C-182.46139901 372.48268614 -186.95287002 372.38036811 -191.4375 372.375 C-192.73888916 372.37411377 -194.04027832 372.37322754 -195.38110352 372.37231445 C-208.19069207 372.21684104 -221.58217915 371.31508633 -233 365 C-233.87893779 357.26534742 -230.6466742 350.05376682 -226.45703125 343.63671875 C-225.97621094 343.09660156 -225.49539062 342.55648438 -225 342 C-224.34 342 -223.68 342 -223 342 C-222.73058594 341.27425781 -222.46117187 340.54851562 -222.18359375 339.80078125 C-221.02169447 337.05133642 -219.66012868 334.70386679 -218.0625 332.1875 C-213.16083816 324.0966155 -213.16083816 324.0966155 -212.24609375 314.9140625 C-212.31457641 308.93344744 -209.77835326 304.56589 -206.9375 299.4375 C-206.47150391 298.54353516 -206.00550781 297.64957031 -205.52539062 296.72851562 C-198.19684842 283.09842421 -198.19684842 283.09842421 -192 280 C-192.1546875 278.9171875 -192.1546875 278.9171875 -192.3125 277.8125 C-191.77918639 273.01267755 -188.17930519 270.94924402 -184.6171875 268.08203125 C-183.32167969 267.05142578 -183.32167969 267.05142578 -182 266 C-171.6756653 257.78329576 -166.69119807 249.33090648 -162.4699707 237.03491211 C-160.7024469 232.18036483 -158.52824652 228.74683815 -155.25 224.75 C-150.55081015 218.86223784 -149.50884507 214.41108227 -149 207 C-147.80044362 191.07331855 -144.73237646 178.96809197 -137.3359375 164.64453125 C-135.88689747 161.8651975 -135.88689747 161.8651975 -134.5 158.3125 C-132.79332015 154.543582 -130.65373567 151.31298613 -128.3046875 147.91796875 C-126.96328504 146.03765192 -126.96328504 146.03765192 -126 144 C-125.34 144 -124.68 144 -124 144 C-123.773125 143.154375 -123.54625 142.30875 -123.3125 141.4375 C-122.19992291 138.52360763 -121.34929449 136.9979885 -119.5 134.625 C-116.67504044 130.88047883 -115.95852184 127.57141187 -115 123 C-113.83104773 118.81125435 -112.09719408 117.09099728 -108.703125 114.421875 C-102.66725015 109.38275013 -98.70455305 103.16293135 -94.96875 96.3203125 C-93.31489224 93.53106827 -91.57390512 90.96291879 -89.6875 88.33203125 C-85.87944555 82.95441362 -82.67212142 77.33174759 -79.5 71.5625 C-73.32538901 60.3775903 -67.29107707 49.74227501 -58.375 40.5 C-57.73304688 39.81164063 -57.09109375 39.12328125 -56.4296875 38.4140625 C-53.14832647 34.95787486 -50.15428677 32.3845906 -46 30 C-43.23341043 25.33138009 -41.44025284 20.52088697 -39.5625 15.4375 C-36.3955009 7.12051755 -33.2462039 1.82859467 -25 -2 C-16.61618479 -4.05485667 -7.80776972 -3.89599822 0 0 Z M30 55 C30 55.66 30 56.32 30 57 C28.68 57.33 27.36 57.66 26 58 C26 58.33 26 58.66 26 59 C26.61488281 59.06058594 27.22976563 59.12117188 27.86328125 59.18359375 C29.07564453 59.30927734 29.07564453 59.30927734 30.3125 59.4375 C31.11300781 59.51871094 31.91351563 59.59992188 32.73828125 59.68359375 C35 60 35 60 38 61 C38.66 60.34 39.32 59.68 40 59 C39.01 56.69 38.02 54.38 37 52 C34.62779013 52 32.07122267 53.94235438 30 55 Z M91.20703125 236.015625 C89.04460751 239.57067762 88.58920184 242.89201836 89 247 C90.69952927 253.04767557 94.55579992 257.88137358 100 261 C104.7432852 262.59531355 108.67927934 262.47753916 113.25 260.4375 C118.52325561 257.34917898 121.81182399 253.53361603 123.5 247.625 C124.33129621 242.76762213 123.71174056 239.13897243 121 235 C116.78726403 230.56418637 113.03245246 226.89050442 106.75 226.6875 C99.79795143 226.79873278 95.42701223 230.80467223 91.20703125 236.015625 Z " fill="#1B0F0F" transform="translate(234,5)"/>
<path d="M0 0 C3.68375495 0.55814469 7.15605239 1.24802463 10.6875 2.4375 C11.80705078 2.80681641 11.80705078 2.80681641 12.94921875 3.18359375 C15 4 15 4 18 6 C18.625 8.5625 18.625 8.5625 18 12 C15.91078703 15.21460236 13.47823947 18.08130255 11 21 C9.99054598 22.32619016 8.98731742 23.65724831 8 25 C12.8185067 22.37480303 15.97203165 18.99514211 19.62109375 14.9609375 C22.53537233 12.55869144 24.23142089 12.00977582 28 12 C30.421875 13.40625 30.421875 13.40625 32.75 15.5 C33.60722656 16.2321875 34.46445313 16.964375 35.34765625 17.71875 C36.22292969 18.4715625 37.09820312 19.224375 38 20 C44.33376945 25.43237702 44.33376945 25.43237702 52.125 27.4375 C53.07375 27.293125 54.0225 27.14875 55 27 C56.75753911 23.83793178 57.59206035 20.83572843 58.375 17.3125 C61.71715328 3.52189781 61.71715328 3.52189781 67 0 C66.98428955 0.6705542 66.9685791 1.3411084 66.95239258 2.03198242 C66.88985342 5.0837351 66.85094937 8.13535268 66.8125 11.1875 C66.78736328 12.24259766 66.76222656 13.29769531 66.73632812 14.38476562 C66.72666016 15.40634766 66.71699219 16.42792969 66.70703125 17.48046875 C66.6913208 18.41785889 66.67561035 19.35524902 66.65942383 20.32104492 C67.18686703 24.46988671 69.0876714 27.0876714 72 30 C74.12860662 30.36952049 74.12860662 30.36952049 76.5703125 30.4140625 C77.46621094 30.45273438 78.36210937 30.49140625 79.28515625 30.53125 C80.22230469 30.5621875 81.15945312 30.593125 82.125 30.625 C83.06988281 30.66367188 84.01476562 30.70234375 84.98828125 30.7421875 C87.32532375 30.83661346 89.66235501 30.92218394 92 31 C92.78620364 33.97010264 93.04270367 35.8138427 92.34765625 38.84375 C91.87766858 43.11060436 93.45384356 45.86084758 95.4375 49.5 C95.80222412 50.19778564 96.16694824 50.89557129 96.54272461 51.61450195 C100.7918788 59.66846031 105.31755052 67.60220807 110.05859375 75.375 C114.33484371 82.67129772 116.10752678 87.61151013 115 96 C114.88688477 97.03302246 114.88688477 97.03302246 114.77148438 98.08691406 C113.48881095 109.59670498 110.82701624 119.47178348 106 130 C105.24977474 131.68739986 104.49973945 133.37488423 103.75 135.0625 C103.43160156 135.74957031 103.11320313 136.43664062 102.78515625 137.14453125 C101.86385579 139.1884289 101.86385579 139.1884289 101.1875 142.25 C99.88836116 145.25853205 99.28460618 145.64671694 96.625 147.3125 C92.67624618 149.83577008 91.48625108 152.65451316 89.83203125 156.94140625 C89 159 89 159 87.4375 161 C84.39921289 165.22718206 83.10387548 170.16486643 82.8125 175.3125 C84.29474555 178.66705572 86.10891801 179.56431022 89.40625 181.00390625 C91.3595768 181.75405434 93.31900429 182.48834564 95.28125 183.21484375 C96.4259375 183.63894531 97.570625 184.06304687 98.75 184.5 C99.83796875 184.8815625 100.9259375 185.263125 102.046875 185.65625 C105.13189569 187.06001603 106.87733973 188.37608501 109 191 C109.1875 193.5625 109.1875 193.5625 108 196 C101.78548886 199.5992377 95.86384564 199.46260716 88.8125 199.375 C87.67079346 199.36774902 86.52908691 199.36049805 85.3527832 199.35302734 C73.8287107 199.16820504 60.66385861 198.89558379 50 194 C49.05372535 184.53725349 52.82889719 177.75665422 58 170 C58.24150773 167.48415109 58.24150773 167.48415109 58.125 164.8125 C58.10695312 163.91144531 58.08890625 163.01039063 58.0703125 162.08203125 C58.04710937 161.39496094 58.02390625 160.70789063 58 160 C57.21625 159.9175 56.4325 159.835 55.625 159.75 C53 159 53 159 51.6875 157.375 C50.58736106 153.57452004 50.19927054 149.60145892 52 146 C51.21625 146.061875 50.4325 146.12375 49.625 146.1875 C48.75875 146.125625 47.8925 146.06375 47 146 C44.52122058 142.28183087 44.78109448 140.42815025 44.83984375 135.99609375 C44.84504532 135.31700455 44.85024689 134.63791534 44.85560608 133.93824768 C44.87340279 131.7711131 44.90457634 129.60445345 44.9375 127.4375 C44.96511421 125.2670227 44.98981911 123.09661208 45.00868225 120.92604065 C45.0265454 118.9590061 45.05394334 116.99206508 45.08178711 115.02514648 C45.21549155 112.07858512 45.21549155 112.07858512 44 110 C42.84951172 109.35611328 42.84951172 109.35611328 41.67578125 108.69921875 C38.60879261 106.75156903 37.18368075 104.82634153 35.1875 101.8125 C34.58292969 100.91144531 33.97835937 100.01039063 33.35546875 99.08203125 C32.90816406 98.39496094 32.46085938 97.70789063 32 97 C30.6696875 98.1446875 30.6696875 98.1446875 29.3125 99.3125 C25.17530206 102.86107222 21.00839124 106.37414809 16.84228516 109.88867188 C13.75834844 112.49521625 10.70502039 115.12893443 7.6875 117.8125 C-2.79507086 127.00968162 -2.79507086 127.00968162 -8 128 C-7.87625 129.0725 -7.7525 130.145 -7.625 131.25 C-7.74875 132.4875 -7.8725 133.725 -8 135 C-10.75 137.125 -10.75 137.125 -14 139 C-14.680625 139.886875 -15.36125 140.77375 -16.0625 141.6875 C-18 144 -18 144 -20.75 144.8125 C-21.4925 144.874375 -22.235 144.93625 -23 145 C-23.02578125 145.57878906 -23.0515625 146.15757812 -23.078125 146.75390625 C-24.50761779 150.23678063 -27.54867718 151.30119633 -30.75 152.9375 C-35.60419182 155.45019888 -39.2493333 157.90529733 -43 162 C-45 164 -45 164 -47.4375 164.1875 C-48.7059375 164.5896875 -48.7059375 164.5896875 -50 165 C-50.65993741 166.71583727 -51.31485743 168.43407515 -51.92578125 170.16796875 C-53.72908341 173.24341862 -56.73005004 174.21737449 -59.84765625 175.73828125 C-63.02563805 177.6012361 -64.14966101 179.8686571 -66 183 C-66.99 183.33 -67.98 183.66 -69 184 C-67.52568447 188.01722409 -66.15759137 190.2330721 -62.3828125 192.16015625 C-60.97198052 192.81283086 -59.5522652 193.44659006 -58.125 194.0625 C-52.76963197 196.42803141 -48.9066014 198.58017841 -45 203 C-46.625 208.75 -46.625 208.75 -50 211 C-54.46139901 211.48268614 -58.95287002 211.38036811 -63.4375 211.375 C-64.73888916 211.37411377 -66.04027832 211.37322754 -67.38110352 211.37231445 C-80.19069207 211.21684104 -93.58217915 210.31508633 -105 204 C-105.87893779 196.26534742 -102.6466742 189.05376682 -98.45703125 182.63671875 C-97.97621094 182.09660156 -97.49539062 181.55648437 -97 181 C-96.34 181 -95.68 181 -95 181 C-94.73058594 180.27425781 -94.46117188 179.54851562 -94.18359375 178.80078125 C-93.02169447 176.05133642 -91.66012868 173.70386679 -90.0625 171.1875 C-85.16083816 163.0966155 -85.16083816 163.0966155 -84.24609375 153.9140625 C-84.31457641 147.93344744 -81.77835326 143.56589 -78.9375 138.4375 C-78.47150391 137.54353516 -78.00550781 136.64957031 -77.52539062 135.72851562 C-74.33797965 129.80036487 -70.6671367 124.84205734 -66 120 C-65.48646973 119.45561279 -64.97293945 118.91122559 -64.44384766 118.3503418 C-62.45706849 116.49222959 -60.32993541 115.75839444 -57.8125 114.75 C-53.12641019 112.6898424 -49.74011021 110.37952063 -46.02734375 106.89453125 C-40.48252905 101.71296067 -34.51042288 97.1720155 -28.00390625 93.28125 C-24.87377292 91.27991719 -22.01737722 88.94896096 -19.11328125 86.63671875 C-17.30627029 85.23720379 -15.48984055 83.97393159 -13.5625 82.75 C-10.79063225 81.09141655 -10.79063225 81.09141655 -9 78 C-12.38192416 79.50480112 -14.92826099 81.49359606 -17.75 83.875 C-22.85291472 88.02818465 -27.72631669 90.90877223 -34 93 C-33.39096791 89.15507855 -32.24052188 86.11726538 -30.48828125 82.6484375 C-29.97716797 81.63136719 -29.46605469 80.61429687 -28.93945312 79.56640625 C-28.40255859 78.51324219 -27.86566406 77.46007812 -27.3125 76.375 C-26.79494141 75.34503906 -26.27738281 74.31507813 -25.74414062 73.25390625 C-20.64994738 63.16702299 -15.46453595 53.28417398 -9 44 C-10.485 43.505 -10.485 43.505 -12 43 C-12.90706716 26.71310528 -10.79821286 12.94540792 0 0 Z " fill="#1E1212" transform="translate(106,166)"/>
<path d="M0 0 C4.30917916 3.25582425 6.11674879 6.93346405 8.10546875 11.81640625 C8.94897779 14.00363212 8.94897779 14.00363212 10.1015625 15.95703125 C11.20774408 18.47239198 11.23244806 20.38725424 11.1875 23.125 C11.17783203 24.42824219 11.17783203 24.42824219 11.16796875 25.7578125 C11 28 11 28 10 30 C9.9283265 32.55157655 9.90691558 35.07472971 9.9375 37.625 C9.94426758 38.68460938 9.94426758 38.68460938 9.95117188 39.765625 C9.96296125 41.51045275 9.98089676 43.255237 10 45 C9.36449219 45.10957031 8.72898438 45.21914063 8.07421875 45.33203125 C7.38972656 45.55246094 6.70523438 45.77289063 6 46 C4.28573271 49.87965756 3.59763324 53.81656731 3 58 C6.90050501 54.89732556 9.89028492 51.9122222 13 48 C16.14675128 45.25667837 19.42057115 43.12830904 23 41 C23.99 40.01 23.99 40.01 25 39 C25.99 39 26.98 39 28 39 C28 38.34 28 37.68 28 37 C30.484375 35.2734375 30.484375 35.2734375 33.75 33.375 C34.81734375 32.74335937 35.8846875 32.11171875 36.984375 31.4609375 C40 30 40 30 44 30 C44.02690104 32.79173055 44.04679053 35.58320348 44.0625 38.375 C44.07087891 39.1690625 44.07925781 39.963125 44.08789062 40.78125 C44.11328125 46.7734375 44.11328125 46.7734375 43 49 C40 48 40 48 38 45 C35.94074861 44.27617533 35.94074861 44.27617533 34 44 C34.7734375 45.3921875 34.7734375 45.3921875 35.5625 46.8125 C37 50 37 50 36 53 C33 55 33 55 30 55 C30 55.66 30 56.32 30 57 C29.01 57.33 28.02 57.66 27 58 C28.98567708 58.1953125 30.97135417 58.390625 32.95703125 58.5859375 C35 59 35 59 38 61 C42.97545698 61.69153463 47.61649176 61.33326836 52.3125 59.5625 C57.01530107 57.79174303 61.45738265 57.59220943 66.4453125 57.31640625 C71.63104154 56.85481938 76.60978923 55.74529031 81.6875 54.62109375 C84.57917597 54.07890451 87.07333989 53.79018429 90 54 C91.60260138 55.60260138 91.20898122 57.28498585 91.25 59.5 C91.20429965 64.83170798 89.90307762 69.07644138 88 74 C85.89442291 79.60192281 85.47441121 84.91832647 85.05078125 90.85546875 C84 94 84 94 81.23046875 95.8203125 C75.67238799 97.68052494 69.80333316 98.13572007 64 98.6875 C62.69087646 98.81342529 61.38175293 98.93935059 60.03295898 99.0690918 C47.06162074 100.20706723 34.07605645 100.29808006 21.0625 100.3125 C19.50897827 100.31774185 19.50897827 100.31774185 17.92407227 100.3230896 C14.94006162 100.32868063 11.95661385 100.31810342 8.97265625 100.30078125 C8.08417496 100.3015567 7.19569366 100.30233215 6.2802887 100.3031311 C0.84699065 100.24245366 -3.76434166 99.44143967 -9 98 C-11.39045085 97.65716704 -11.39045085 97.65716704 -13.5 97.5859375 C-14.24121094 97.54726562 -14.98242188 97.50859375 -15.74609375 97.46875 C-16.48988281 97.4378125 -17.23367187 97.406875 -18 97.375 C-18.77472656 97.33632812 -19.54945313 97.29765625 -20.34765625 97.2578125 C-22.23143415 97.16478643 -24.11568256 97.08136825 -26 97 C-26 96.34 -26 95.68 -26 95 C-23.69483117 93.84741559 -22.20766053 93.81728056 -19.640625 93.71875 C-18.33738281 93.66267578 -18.33738281 93.66267578 -17.0078125 93.60546875 C-16.09773438 93.57066406 -15.18765625 93.53585938 -14.25 93.5 C-8.75759115 93.28631839 -3.40785433 93.07440815 2 92 C2 91.34 2 90.68 2 90 C0.91972534 90.23771118 0.91972534 90.23771118 -0.18237305 90.48022461 C-2.85282412 90.97285006 -5.37204546 91.20002649 -8.08203125 91.31640625 C-9.01337891 91.35830078 -9.94472656 91.40019531 -10.90429688 91.44335938 C-11.86400391 91.48267578 -12.82371094 91.52199219 -13.8125 91.5625 C-14.79154297 91.60568359 -15.77058594 91.64886719 -16.77929688 91.69335938 C-19.18607027 91.7990226 -21.59293983 91.90112327 -24 92 C-22.35 90.35 -20.7 88.7 -19 87 C-22.72403371 87.32859121 -24.01330592 88.01185962 -26.875 90.5625 C-31.40411232 94.09520761 -35.06086507 93.19748503 -40.60546875 92.6328125 C-41.78753906 92.46523437 -42.96960938 92.29765625 -44.1875 92.125 C-45.37730469 91.96257812 -46.56710938 91.80015625 -47.79296875 91.6328125 C-50.59228093 91.08045127 -52.56607123 90.43740706 -55 89 C-55 89.99 -55 90.98 -55 92 C-52.26352229 93.36823886 -49.8651825 93.22745953 -46.8125 93.375 C-41.51543516 93.75042874 -37.58020475 94.29351538 -33 97 C-32.67 97.99 -32.34 98.98 -32 100 C-34.64 100.99 -37.28 101.98 -40 103 C-40 103.99 -40 104.98 -40 106 C-38.02 106 -36.04 106 -34 106 C-35.3937417 108.7874834 -36.8952884 108.92616367 -39.78515625 110.0234375 C-40.78345459 110.40306641 -41.78175293 110.78269531 -42.81030273 111.17382812 C-43.88352783 111.57021484 -44.95675293 111.96660156 -46.0625 112.375 C-47.15054932 112.77912109 -48.23859863 113.18324219 -49.35961914 113.59960938 C-64.95016898 119.28523582 -79.39009292 122.25294275 -96 122 C-96 122.66 -96 123.32 -96 124 C-91.91680782 124.0885085 -87.83386837 124.14089063 -83.75 124.1875 C-82.61046875 124.21263672 -81.4709375 124.23777344 -80.296875 124.26367188 C-67.75063539 124.37060005 -57.81770811 121.3509956 -46.6875 115.75 C-44.68498445 114.77065212 -42.68238011 113.79148575 -40.6796875 112.8125 C-38.78593255 111.87606254 -36.89267139 110.93862556 -35 110 C-32.11095819 108.56875276 -29.21575306 107.15215389 -26.3125 105.75 C-25.17425781 105.18796875 -24.03601563 104.6259375 -22.86328125 104.046875 C-19.94251169 102.97898108 -18.82140205 102.81926727 -16 104 C-16.68835938 104.74443359 -16.68835938 104.74443359 -17.390625 105.50390625 C-20.71377711 109.18311037 -23.55892553 112.66752675 -25.90234375 117.0703125 C-28.59758884 121.80857255 -31.73685723 126.79570964 -35.65234375 130.609375 C-37.26472255 132.07229258 -37.26472255 132.07229258 -38 135 C-29.49637643 127.89925849 -23.60397376 120.67491996 -17.9296875 111.18359375 C-16.97449219 109.60771484 -16.97449219 109.60771484 -16 108 C-15.34773438 106.88496094 -14.69546875 105.76992187 -14.0234375 104.62109375 C-12 102 -12 102 -9.859375 101.4140625 C-9.16328125 101.48367187 -8.4671875 101.55328125 -7.75 101.625 C-5.89375 101.810625 -5.89375 101.810625 -4 102 C-4.55728913 105.34373475 -5.35173889 108.03312999 -7 111 C-6.01 111 -5.02 111 -4 111 C-3.5359375 109.824375 -3.5359375 109.824375 -3.0625 108.625 C-2 106 -2 106 -1 104 C-0.34 104 0.32 104 1 104 C1.42880589 108.50246185 0.77649982 110.59860551 -1.86328125 114.2109375 C-6.29132995 121.18016879 -8.00798567 130.18480304 -10.24975586 138.07348633 C-11.08998235 141.0141086 -11.9464602 143.87217142 -13.12890625 146.6953125 C-15.51256182 153.00184518 -14.14593235 159.91589068 -12.5 166.25 C-10.67125423 173.46964562 -10.26093879 180.5805933 -11 188 C-13 190 -13 190 -16.546875 190.21484375 C-21.19173644 190.09652334 -25.6817307 189.36587567 -30.25 188.5625 C-36.69335197 187.4704489 -43.01120627 186.63517646 -49.5546875 186.40625 C-52.67142913 185.88845267 -54.5012687 184.93122284 -57 183 C-63.72982798 171.03358855 -57.15488319 153.24530992 -54 141 C-57.24230772 141.71352718 -57.24230772 141.71352718 -58.61328125 144.7734375 C-59.17402344 145.96195313 -59.73476562 147.15046875 -60.3125 148.375 C-60.92784454 149.65973851 -61.54505623 150.94358426 -62.1640625 152.2265625 C-62.47118164 152.86625977 -62.77830078 153.50595703 -63.09472656 154.16503906 C-64.36782439 156.74556853 -65.77327932 159.24460397 -67.1875 161.75 C-69.11414227 165.22410495 -70.74603851 168.6730648 -72.1875 172.375 C-75.01434239 179.63248516 -75.01434239 179.63248516 -77 182 C-79.8515625 182.859375 -79.8515625 182.859375 -83 183 C-85.0625 181.48046875 -85.0625 181.48046875 -87 179.1875 C-97.25308111 168.19961474 -109.02102982 162.1109552 -123 157 C-123.30190851 147.41440488 -120.04409282 141.29852718 -114 134 C-111.46847511 131.46419165 -108.85842396 129.15902235 -106 127 C-108.76276177 127.52268466 -111.3260876 128.10869587 -114 129 C-114.33 129.99 -114.66 130.98 -115 132 C-115.66 131.67 -116.32 131.34 -117 131 C-114.06716569 118.64019826 -114.06716569 118.64019826 -108.703125 114.421875 C-102.66725015 109.38275013 -98.70455305 103.16293135 -94.96875 96.3203125 C-93.31489224 93.53106827 -91.57390512 90.96291879 -89.6875 88.33203125 C-85.87944555 82.95441362 -82.67212142 77.33174759 -79.5 71.5625 C-73.32538901 60.3775903 -67.29107707 49.74227501 -58.375 40.5 C-57.73304688 39.81164063 -57.09109375 39.12328125 -56.4296875 38.4140625 C-53.14832647 34.95787486 -50.15428677 32.3845906 -46 30 C-43.23341043 25.33138009 -41.44025284 20.52088697 -39.5625 15.4375 C-36.3955009 7.12051755 -33.2462039 1.82859467 -25 -2 C-16.61618479 -4.05485667 -7.80776972 -3.89599822 0 0 Z " fill="#FBFBFB" transform="translate(234,5)"/>
<path d="M0 0 C3.68375495 0.55814469 7.15605239 1.24802463 10.6875 2.4375 C11.80705078 2.80681641 11.80705078 2.80681641 12.94921875 3.18359375 C15 4 15 4 18 6 C18.625 8.5625 18.625 8.5625 18 12 C15.91078703 15.21460236 13.47823947 18.08130255 11 21 C9.99054598 22.32619016 8.98731742 23.65724831 8 25 C12.8185067 22.37480303 15.97203165 18.99514211 19.62109375 14.9609375 C22.53537233 12.55869144 24.23142089 12.00977582 28 12 C30.421875 13.40625 30.421875 13.40625 32.75 15.5 C33.60722656 16.2321875 34.46445313 16.964375 35.34765625 17.71875 C36.22292969 18.4715625 37.09820312 19.224375 38 20 C44.33376945 25.43237702 44.33376945 25.43237702 52.125 27.4375 C53.07375 27.293125 54.0225 27.14875 55 27 C56.75753911 23.83793178 57.59206035 20.83572843 58.375 17.3125 C61.71715328 3.52189781 61.71715328 3.52189781 67 0 C66.98428955 0.6705542 66.9685791 1.3411084 66.95239258 2.03198242 C66.88985342 5.0837351 66.85094937 8.13535268 66.8125 11.1875 C66.78736328 12.24259766 66.76222656 13.29769531 66.73632812 14.38476562 C66.72666016 15.40634766 66.71699219 16.42792969 66.70703125 17.48046875 C66.6913208 18.41785889 66.67561035 19.35524902 66.65942383 20.32104492 C67.18686703 24.46988671 69.0876714 27.0876714 72 30 C74.12860662 30.36952049 74.12860662 30.36952049 76.5703125 30.4140625 C77.46621094 30.45273438 78.36210937 30.49140625 79.28515625 30.53125 C80.22230469 30.5621875 81.15945312 30.593125 82.125 30.625 C83.06988281 30.66367188 84.01476562 30.70234375 84.98828125 30.7421875 C87.32532375 30.83661346 89.66235501 30.92218394 92 31 C92 31.66 92 32.32 92 33 C91.29875 33.19980469 90.5975 33.39960938 89.875 33.60546875 C86.02270924 35.47403913 83.78929967 38.12321192 81 41.3125 C79.98014805 42.45530364 78.95932594 43.59724229 77.9375 44.73828125 C77.195 45.57093506 77.195 45.57093506 76.4375 46.42041016 C74.36891257 48.69346734 72.19210225 50.84654058 70 53 C69.19433594 53.81597656 68.38867188 54.63195312 67.55859375 55.47265625 C64.79335199 58.20412407 61.93801455 60.82391876 59.0625 63.4375 C53.51423962 68.5113172 48.18748291 73.77425545 42.90087891 79.11865234 C39.25555751 82.7886808 35.53230074 86.29336156 31.578125 89.6328125 C29.81626794 91.11421308 29.81626794 91.11421308 27.6875 93.4375 C25.20413774 95.80535703 22.73670654 97.65355882 19.9375 99.625 C14.44893542 103.53161024 9.6160852 107.87161773 4.7265625 112.484375 C0.8119962 116.0960952 -3.12788239 119.13458466 -7.6875 121.875 C-11.81236067 124.5527784 -12.48301827 126.3479227 -14 131 C-19.56560089 135.72056201 -26.07254047 135.45843482 -33 135 C-32.01 135.61875 -32.01 135.61875 -31 136.25 C-30.34 136.8275 -29.68 137.405 -29 138 C-29 139.32 -29 140.64 -29 142 C-33.51939066 142.07173636 -37.8900066 142.07583098 -42.375 141.5 C-47.58329694 140.84550605 -52.75902782 140.91183411 -58 141 C-58 141.66 -58 142.32 -58 143 C-57.03578125 142.97679687 -56.0715625 142.95359375 -55.078125 142.9296875 C-53.81484375 142.91164063 -52.5515625 142.89359375 -51.25 142.875 C-49.99703125 142.85179687 -48.7440625 142.82859375 -47.453125 142.8046875 C-44.27179508 142.98462698 -42.63478104 143.31001418 -40 145 C-40.34066544 147.85672304 -40.64691133 149.58686833 -42.5390625 151.80078125 C-49.65986933 156.96136597 -56.44296832 156.95178848 -65 156 C-68.45298211 155.25100756 -71.71521817 154.29845494 -75 153 C-76.77888003 145.49207989 -74.8172546 139.92827459 -70.9375 133.375 C-67.80764811 128.6736191 -64.33596443 125.46149104 -59.72265625 122.2421875 C-59.15417969 121.83226562 -58.58570312 121.42234375 -58 121 C-58 120.67 -58 120.34 -58 120 C-59.65 119.67 -61.3 119.34 -63 119 C-63 118.34 -63 117.68 -63 117 C-62.29875 116.72027344 -61.5975 116.44054687 -60.875 116.15234375 C-55.10743754 113.71523516 -50.5887095 111.17605861 -46.02734375 106.89453125 C-40.48252905 101.71296067 -34.51042288 97.1720155 -28.00390625 93.28125 C-24.87377292 91.27991719 -22.01737722 88.94896096 -19.11328125 86.63671875 C-17.30627029 85.23720379 -15.48984055 83.97393159 -13.5625 82.75 C-10.79063225 81.09141655 -10.79063225 81.09141655 -9 78 C-12.38192416 79.50480112 -14.92826099 81.49359606 -17.75 83.875 C-22.85291472 88.02818465 -27.72631669 90.90877223 -34 93 C-33.39096791 89.15507855 -32.24052188 86.11726538 -30.48828125 82.6484375 C-29.97716797 81.63136719 -29.46605469 80.61429687 -28.93945312 79.56640625 C-28.40255859 78.51324219 -27.86566406 77.46007812 -27.3125 76.375 C-26.79494141 75.34503906 -26.27738281 74.31507813 -25.74414062 73.25390625 C-20.64994738 63.16702299 -15.46453595 53.28417398 -9 44 C-10.485 43.505 -10.485 43.505 -12 43 C-12.90706716 26.71310528 -10.79821286 12.94540792 0 0 Z " fill="#FCFCFC" transform="translate(106,166)"/>
<path d="M0 0 C9.60219881 8.59573605 10.53323622 28.81973182 11.22021484 40.859375 C12.11836038 64.28202758 9.93217618 85.87461477 2 108 C1.7210791 108.79245117 1.4421582 109.58490234 1.15478516 110.40136719 C-1.91781699 119.04822126 -5.15584686 127.01295487 -10.3828125 134.62109375 C-11.92937277 136.89610632 -13.22259706 139.19125518 -14.5 141.625 C-19.89736099 151.52016182 -27.97185217 160.16766065 -36 168 C-36.66515625 168.68707031 -37.3303125 169.37414062 -38.015625 170.08203125 C-38.73234375 170.81808594 -39.4490625 171.55414063 -40.1875 172.3125 C-40.86167969 173.00988281 -41.53585937 173.70726562 -42.23046875 174.42578125 C-44 176 -44 176 -46 176 C-46 176.66 -46 177.32 -46 178 C-49.49108006 180.89727018 -53.27548281 183.41259285 -57 186 C-58.23169922 186.86818359 -58.23169922 186.86818359 -59.48828125 187.75390625 C-63.27717514 190.36490567 -66.86772066 192.41764404 -71.13476562 194.18969727 C-73.63522425 195.27595671 -76.0260808 196.53846045 -78.43945312 197.80395508 C-92.39602803 205.07623194 -106.44850568 209.69707167 -122 212 C-123.29550781 212.20496094 -124.59101563 212.40992188 -125.92578125 212.62109375 C-135.98356226 214.06360438 -145.85229946 214.30195829 -156 214 C-157.17046875 213.97035156 -158.3409375 213.94070313 -159.546875 213.91015625 C-178.70645128 212.98815786 -198.96782566 208.22987965 -215.91015625 199.078125 C-217.93424793 198.03392069 -219.906185 197.28547501 -222.0625 196.5625 C-226.90343085 194.81358087 -230.84933846 191.9995272 -235 189 C-235.90621094 188.3503125 -236.81242187 187.700625 -237.74609375 187.03125 C-243.51917675 182.79918916 -249.09016066 178.36210552 -254.5625 173.75 C-255.15828857 173.25483887 -255.75407715 172.75967773 -256.36791992 172.24951172 C-260.65582314 168.58226662 -263.72634022 165.46293801 -264.375 159.625 C-263.84694643 154.52048218 -262.74165224 150.58797704 -258.875 147.0625 C-253.99028078 145.25727768 -249.2316417 145.09671646 -244.375 147.0625 C-242.41721808 148.65963788 -240.74932444 150.25344253 -239 152.0625 C-227.73868708 163.4911785 -214.17786001 170.78911917 -200 178 C-198.39705078 178.82177734 -198.39705078 178.82177734 -196.76171875 179.66015625 C-169.28957401 192.31769257 -132.96088874 194.29580876 -104 186 C-102.72987061 185.64591064 -102.72987061 185.64591064 -101.43408203 185.28466797 C-88.07203082 181.464476 -75.97902905 176.01365822 -64 169 C-62.89140625 168.35289062 -61.7828125 167.70578125 -60.640625 167.0390625 C-51.18885136 161.11295046 -42.21360527 153.32762348 -35.21484375 144.6015625 C-34.11849609 143.31378906 -34.11849609 143.31378906 -33 142 C-32.34 142 -31.68 142 -31 142 C-30.77441406 141.47792969 -30.54882812 140.95585937 -30.31640625 140.41796875 C-28.89470426 137.80659329 -27.18145139 135.5315496 -25.36987305 133.1796875 C-2.59776427 103.49482506 8.04901721 64.86002954 3.59863281 27.64355469 C2.82092436 22.41961518 1.8815078 17.23869559 0.875 12.0546875 C0.09285324 7.94077883 -0.18523411 4.17934451 0 0 Z " fill="#EF4B39" transform="translate(481,141)"/>
<path d="M0 0 C3.15335692 0.30777628 4.62181031 0.60338157 6.84375 2.93359375 C10.71264923 8.78256641 14.03913251 14.64699021 17 21 C17.68277032 22.43528783 18.36643954 23.87014824 19.05078125 25.3046875 C20.48101384 28.31431413 21.91060084 31.32420814 23.328125 34.33984375 C23.6262207 34.97269287 23.92431641 35.60554199 24.23144531 36.25756836 C26.80238523 42.08628443 26.86308213 48.19498308 25 54.25 C21.8874854 58.52970757 18.11685998 62.49198887 12.69921875 63.375 C10.5 63.375 10.5 63.375 7 63 C7 63.66 7 64.32 7 65 C11.9279076 65.3519934 14.68554776 64.3010412 19 62 C19.99 62 20.98 62 22 62 C21.38722388 64.96175123 20.74627478 66.38058783 19 69 C18.27471618 71.62348756 17.61106679 74.22545261 17 76.875 C13.89866243 90.17683065 13.89866243 90.17683065 10 93 C7.51953125 93.51171875 7.51953125 93.51171875 4.8125 93.6875 C3.91144531 93.75324219 3.01039063 93.81898438 2.08203125 93.88671875 C1.05142578 93.94279297 1.05142578 93.94279297 0 94 C0.32226562 94.556875 0.64453125 95.11375 0.9765625 95.6875 C2.74873949 99.69180831 2.5344943 103.70979241 2 108 C0.6875 110.625 0.6875 110.625 -2 112 C-8.82022827 113.12758188 -13.81069707 112.29260208 -19.44140625 108.2890625 C-21 107 -21 107 -23 105 C-23 104.01 -23 103.02 -23 102 C-22.38511719 101.95101562 -21.77023438 101.90203125 -21.13671875 101.8515625 C-19.92435547 101.73941406 -19.92435547 101.73941406 -18.6875 101.625 C-17.88699219 101.55539062 -17.08648437 101.48578125 -16.26171875 101.4140625 C-13.72775559 101.10435574 -13.72775559 101.10435574 -11 99 C-14.95539208 97.73764083 -18.54377796 96.89180241 -22.6875 96.5625 C-26.26570281 96.232768 -28.3769292 95.6230708 -31 93 C-30.79375 92.0925 -30.5875 91.185 -30.375 90.25 C-29.9872755 86.88972103 -30.19588033 85.75924185 -32 83 C-29.03 82.505 -29.03 82.505 -26 82 C-26.99 81.2575 -27.98 80.515 -29 79.75 C-30.6875 78.484375 -30.6875 78.484375 -32 77 C-32 75.68 -32 74.36 -32 73 C-28.9666893 74.03999224 -26.92809348 75.0596298 -24.4375 77.125 C-21.98412212 79.40647384 -21.98412212 79.40647384 -18 79 C-18.51949219 78.76925781 -19.03898437 78.53851563 -19.57421875 78.30078125 C-24.15989565 76.15627801 -27.83086454 74.08920704 -31 70 C-30.67 68.68 -30.34 67.36 -30 66 C-26.7 66 -23.4 66 -20 66 C-24.29 64.02 -28.58 62.04 -33 60 C-33 59.01 -33 58.02 -33 57 C-28.07186205 56.64799015 -25.30191904 57.66200052 -21 60 C-17.42656145 61.20702813 -13.99747687 61.09997477 -10.25 61.0625 C-9.07953125 61.05347656 -7.9090625 61.04445313 -6.703125 61.03515625 C-5.36507812 61.01775391 -5.36507812 61.01775391 -4 61 C-4 60.34 -4 59.68 -4 59 C-4.99 59.495 -4.99 59.495 -6 60 C-11.47687336 60.55886463 -14.85244485 59.34937272 -19.64453125 57.0234375 C-23.30290138 55.43389691 -27.08836732 54.70279925 -31 54 C-29.26207846 48.78623537 -24.55081053 46.68772703 -20 44 C-20.95261719 44.52851563 -21.90523437 45.05703125 -22.88671875 45.6015625 C-24.15314157 46.27698801 -25.42009715 46.95141527 -26.6875 47.625 C-27.31333984 47.975625 -27.93917969 48.32625 -28.58398438 48.6875 C-31.61289079 50.27331488 -33.37870182 51.13719243 -36.77734375 50.38671875 C-40.1797173 48.26397251 -41.75639031 46.36541453 -44 43 C-44.25 40.5 -44.25 40.5 -43 38 C-39.22718028 34.03259359 -34.61062886 30.93746425 -30.2265625 27.6875 C-13.57081696 15.39543281 -13.57081696 15.39543281 0 0 Z " fill="#FBFBFB" transform="translate(190,214)"/>
<path d="M0 0 C0.94617188 0.26039062 1.89234375 0.52078125 2.8671875 0.7890625 C11.52359321 3.19486876 19.16954 6.83130442 27.07543945 11.00219727 C29.05406032 12.02802798 31.05571643 12.99546321 33.0625 13.96484375 C36.85401366 15.856688 40.26713045 18.06976474 43.6875 20.5625 C44.28054932 20.99159668 44.87359863 21.42069336 45.48461914 21.86279297 C51.93438383 26.5931329 58.06560724 31.6396425 64 37 C64.78117188 37.69996094 65.56234375 38.39992187 66.3671875 39.12109375 C69.87576455 42.62262546 71.44664262 45.17100472 71.75 50.1875 C71.46573736 53.67373998 70.98722543 55.02019206 69.0625 58.0625 C65.02666631 60.61578254 61.76144375 61.40365181 57 61 C54.17691096 59.7901047 52.38524678 58.80184226 50 57 C49.30132812 56.47792969 48.60265625 55.95585938 47.8828125 55.41796875 C45.56422797 53.64092213 43.27996039 51.82627519 41 50 C38.02080383 47.63863362 35.02256623 45.30560939 32 43 C31.26523437 42.43410156 30.53046875 41.86820313 29.7734375 41.28515625 C1.48613752 20.42445509 -37.18706076 12.81519977 -71.63671875 17.859375 C-77.11961266 18.7714929 -82.56333819 19.8468397 -88 21 C-89.66629522 21.33518523 -91.33286792 21.66900225 -93 22 C-93 21.01 -93 20.02 -93 19 C-93.66 19 -94.32 19 -95 19 C-95 17.68 -95 16.36 -95 15 C-95.66 15 -96.32 15 -97 15 C-97 16.98 -97 18.96 -97 21 C-97.66 21.33 -98.32 21.66 -99 22 C-99 18.04 -99 14.08 -99 10 C-100.32 10 -101.64 10 -103 10 C-103 12.31 -103 14.62 -103 17 C-103.33 17 -103.66 17 -104 17 C-104.1352403 15.39815374 -104.23210847 13.79303374 -104.3125 12.1875 C-104.37050781 11.29417969 -104.42851562 10.40085937 -104.48828125 9.48046875 C-104 7 -104 7 -101.828125 5.30078125 C-97.01496222 3.08699229 -92.06431436 1.53650314 -87 0 C-86.0821875 -0.28101563 -85.164375 -0.56203125 -84.21875 -0.8515625 C-58.82630309 -7.91294521 -25.00433564 -8.60364237 0 0 Z " fill="#FCB523" transform="translate(393,21)"/>
<path d="M0 0 C3.47114828 2.6756768 4.76657356 4.04833836 5.8125 8.3125 C5.874375 9.199375 5.93625 10.08625 6 11 C2.63061102 9.87687034 1.46825907 8.46825907 -1 6 C-1.99 5.67 -2.98 5.34 -4 5 C-4.20625 6.258125 -4.4125 7.51625 -4.625 8.8125 C-4.79902344 9.87404297 -4.79902344 9.87404297 -4.9765625 10.95703125 C-5.19577848 13.31755824 -5.19577848 13.31755824 -3 16 C-3.22280557 18.89647246 -3.64647949 20.55264966 -5.45703125 22.84375 C-7.64182533 25.89693058 -8.24653667 29.05920764 -9.15625 32.66015625 C-10.05291825 35.14675014 -11.00454517 36.30940633 -13 38 C-13.33 37.67 -13.66 37.34 -14 37 C-13.96768625 35.24918246 -13.89901358 33.49897732 -13.8125 31.75 C-13.75447791 27.6937283 -13.78566318 26.34159931 -16 22.8125 C-16.99 21.9153125 -16.99 21.9153125 -18 21 C-20.47266765 21.34444881 -20.47266765 21.34444881 -23 22 C-24.23004981 24.46009963 -24.13314027 26.13172806 -24.125 28.875 C-24.12757813 29.73867188 -24.13015625 30.60234375 -24.1328125 31.4921875 C-24.01023921 33.80665971 -23.64966445 35.78289116 -23 38 C-21.35 38.33 -19.7 38.66 -18 39 C-18 39.66 -18 40.32 -18 41 C-19.98 40.67 -21.96 40.34 -24 40 C-23.67 40.66 -23.34 41.32 -23 42 C-22.93049459 43.54023996 -22.91547643 45.08334988 -22.9375 46.625 C-22.94652344 47.44226562 -22.95554687 48.25953125 -22.96484375 49.1015625 C-22.97644531 49.72804687 -22.98804688 50.35453125 -23 51 C-26 50 -26 50 -27.16796875 48.15234375 C-27.50441406 47.42144531 -27.84085937 46.69054688 -28.1875 45.9375 C-28.53167969 45.20402344 -28.87585938 44.47054687 -29.23046875 43.71484375 C-29.48441406 43.14894531 -29.73835938 42.58304688 -30 42 C-29.54300722 47.02692063 -27.00758252 50.14896261 -24 54 C-26.80828805 53.91740329 -28.52400492 53.44224482 -30.59765625 51.515625 C-32.72172202 49.07321031 -34.61019752 46.80175283 -36.03125 43.87890625 C-37.4539211 41.1196127 -39.2246702 40.29085107 -42 39 C-44.70953551 38.74803871 -44.70953551 38.74803871 -47 39 C-44.36 40.32 -41.72 41.64 -39 43 C-39 43.66 -39 44.32 -39 45 C-39.86882812 45.02578125 -40.73765625 45.0515625 -41.6328125 45.078125 C-50.62869922 45.34817808 -50.62869922 45.34817808 -58 50 C-62.04189997 55.03097667 -65.30592436 60.46750845 -68.5 66.0625 C-71.11487646 70.64292117 -74.00349359 74.68847634 -77.3046875 78.7890625 C-81.8622895 84.7328476 -85.21343149 91.20826901 -88.12109375 98.08203125 C-89.14037972 100.30633974 -90.39524659 102.15453358 -92 104 C-89.36 103.67 -86.72 103.34 -84 103 C-86.219443 107.02274044 -88.75005395 107.76469005 -92.86328125 109.1484375 C-96.78350923 110.71079527 -101.07812535 113.1562507 -103 117 C-101.88625 116.525625 -100.7725 116.05125 -99.625 115.5625 C-94.82316641 113.73814745 -90.09727034 113.30291156 -85 113 C-85 113.66 -85 114.32 -85 115 C-85.59014893 115.20157715 -86.18029785 115.4031543 -86.78833008 115.61083984 C-89.46460363 116.5277723 -92.13855296 117.45130616 -94.8125 118.375 C-96.2056543 118.85066406 -96.2056543 118.85066406 -97.62695312 119.3359375 C-98.51962891 119.6453125 -99.41230469 119.9546875 -100.33203125 120.2734375 C-101.56530151 120.69761963 -101.56530151 120.69761963 -102.82348633 121.13037109 C-105.23300276 122.00627644 -105.23300276 122.00627644 -108 124 C-111.1875 124.125 -111.1875 124.125 -114 124 C-114.33 123.01 -114.66 122.02 -115 121 C-114.28972656 120.29488281 -113.57945313 119.58976562 -112.84765625 118.86328125 C-103.07952261 109.4929864 -103.07952261 109.4929864 -96.05078125 98.1328125 C-94.67241355 95.33508475 -92.89256779 92.9633233 -91.0625 90.4375 C-86.05328361 83.45505275 -81.92800398 76.00341981 -77.78149414 68.48608398 C-72.15390223 58.31827724 -66.47439598 48.89571535 -58.375 40.5 C-57.73304688 39.81164063 -57.09109375 39.12328125 -56.4296875 38.4140625 C-53.14832647 34.95787486 -50.15428677 32.3845906 -46 30 C-43.23341043 25.33138009 -41.44025284 20.52088697 -39.5625 15.4375 C-36.3955009 7.12051755 -33.2462039 1.82859467 -25 -2 C-16.62988255 -4.05149937 -7.79099733 -3.91114324 0 0 Z " fill="#1E1313" transform="translate(234,5)"/>
<path d="M0 0 C6.875 3.75 6.875 3.75 8 6 C8.928125 6.37125 8.928125 6.37125 9.875 6.75 C13.09065778 8.6415634 13.7501767 10.50049475 15 14 C15.73298429 22.53403141 15.73298429 22.53403141 14 26 C13.9283265 28.55157655 13.90691558 31.07472971 13.9375 33.625 C13.94201172 34.33140625 13.94652344 35.0378125 13.95117188 35.765625 C13.96296125 37.51045275 13.98089676 39.255237 14 41 C13.36449219 41.10957031 12.72898438 41.21914063 12.07421875 41.33203125 C11.38972656 41.55246094 10.70523438 41.77289063 10 42 C8.28573271 45.87965756 7.59763324 49.81656731 7 54 C10.90050501 50.89732556 13.89028492 47.9122222 17 44 C20.14675128 41.25667837 23.42057115 39.12830904 27 37 C27.66 36.34 28.32 35.68 29 35 C29.99 35 30.98 35 32 35 C32 34.34 32 33.68 32 33 C34.484375 31.2734375 34.484375 31.2734375 37.75 29.375 C38.81734375 28.74335937 39.8846875 28.11171875 40.984375 27.4609375 C44 26 44 26 48 26 C48.02690104 28.79173055 48.04679053 31.58320348 48.0625 34.375 C48.07087891 35.1690625 48.07925781 35.963125 48.08789062 36.78125 C48.11328125 42.7734375 48.11328125 42.7734375 47 45 C44 44 44 44 42 41 C39.94074861 40.27617533 39.94074861 40.27617533 38 40 C38.7734375 41.3921875 38.7734375 41.3921875 39.5625 42.8125 C41 46 41 46 40 49 C37 51 37 51 34 51 C34 51.66 34 52.32 34 53 C33.01 53.33 32.02 53.66 31 54 C33.64 54.33 36.28 54.66 39 55 C39 55.99 39 56.98 39 58 C37.42798828 58.19916016 37.42798828 58.19916016 35.82421875 58.40234375 C34.44529222 58.58057235 33.06638707 58.75896641 31.6875 58.9375 C30.65206055 59.06801758 30.65206055 59.06801758 29.59570312 59.20117188 C26.59857712 59.59210135 23.87549881 60.0415004 21 61 C19.4597556 61.20049283 17.91438096 61.36309645 16.3671875 61.5 C15.47902344 61.5825 14.59085938 61.665 13.67578125 61.75 C11.80084288 61.91735852 9.92584212 62.08401951 8.05078125 62.25 C7.16519531 62.3325 6.27960938 62.415 5.3671875 62.5 C4.14684814 62.60828125 4.14684814 62.60828125 2.90185547 62.71875 C0.9934069 62.80790772 0.9934069 62.80790772 0 64 C-2.67058851 64.14115161 -5.32432238 64.04247107 -8 64 C-8 63.34 -8 62.68 -8 62 C-6.35 61.34 -4.7 60.68 -3 60 C-5.41632339 58.70768774 -7.83304396 57.41612809 -10.25 56.125 C-10.93191406 55.76019531 -11.61382812 55.39539063 -12.31640625 55.01953125 C-15.5252626 53.30606427 -18.73250878 51.60006013 -22 50 C-22 49.34 -22 48.68 -22 48 C-22.639375 47.2575 -23.27875 46.515 -23.9375 45.75 C-26.2139102 42.7147864 -26.65323593 40.7277137 -27 37 C-24.02191543 39.55264392 -22.73409214 42.53181572 -21 46 C-20.34 46.33 -19.68 46.66 -19 47 C-19.14168137 45.56208484 -19.28851043 44.1246763 -19.4375 42.6875 C-19.51871094 41.88699219 -19.59992188 41.08648437 -19.68359375 40.26171875 C-19.95265693 37.83912821 -19.95265693 37.83912821 -21 35 C-18.69 35.66 -16.38 36.32 -14 37 C-14 36.34 -14 35.68 -14 35 C-14.78375 34.9175 -15.5675 34.835 -16.375 34.75 C-19 34 -19 34 -20.14453125 32.265625 C-21.10957801 29.70979341 -21.30002695 27.72744052 -21.3125 25 C-21.32925781 24.154375 -21.34601563 23.30875 -21.36328125 22.4375 C-20.93244007 19.54669465 -19.90529726 18.17173725 -18 16 C-14.79719931 16.26690006 -13.2056088 16.83329016 -10.6875 18.875 C-8.19170036 23.49685119 -8.67555038 27.85386857 -9 33 C-5.93170336 29.32656708 -4.99823535 25.90968158 -3.84375 21.33984375 C-2.93519034 18.82027322 -1.85734733 17.85213006 0 16 C-0.14090084 12.16733708 -0.14090084 12.16733708 -2 9 C-1.9140625 7.1875 -1.9140625 7.1875 -1.625 5 C-1.53476563 4.278125 -1.44453125 3.55625 -1.3515625 2.8125 C-1 1 -1 1 0 0 Z " fill="#2F2424" transform="translate(230,9)"/>
<path d="M0 0 C4.98780669 2.24531491 8.93413207 6.11130472 11.37890625 11.01171875 C12.99046348 16.17072901 12.59710091 21.1735737 10.9375 26.25 C7.41039682 31.25621097 3.61702205 34.85498323 -2.375 36.5625 C-8.16715023 37.52950293 -12.88603704 35.88966983 -17.828125 32.890625 C-21.58999802 30.078351 -23.13960948 27.56006977 -24 23 C-24.53904586 16.99208883 -24.58787994 12.09247475 -21 7 C-14.36612645 0.47361977 -9.43102277 -1.22910572 0 0 Z " fill="#1A0E0E" transform="translate(349,104)"/>
<path d="M0 0 C0.99 0 1.98 0 3 0 C2.67 3.3 2.34 6.6 2 10 C2.75023437 10.12117188 3.50046875 10.24234375 4.2734375 10.3671875 C9.31152709 11.19206363 14.32159364 12.04837921 19.3125 13.125 C23.307365 13.95107871 26.92907114 14.17699691 31 14 C31.33 13.01 31.66 12.02 32 11 C36.9889289 11.50722039 40.62733512 13.18305205 44.8125 15.8125 C45.39708984 16.15603516 45.98167969 16.49957031 46.58398438 16.85351562 C49.01960424 18.35778607 50.74753375 19.45434713 51.96875 22.09375 C52.01683048 25.02665957 50.69142758 26.68211777 49 29 C36.49561087 35.25219456 11.07831543 30.27889458 -2 26 C-4.02914186 25.06054095 -6.04328057 24.0822426 -8 23 C-8.8822654 15.23606445 -5.59574704 8.14360675 -1.51953125 1.63671875 C-1.01808594 1.09660156 -0.51664063 0.55648438 0 0 Z " fill="#1B0F0F" transform="translate(9,347)"/>
<path d="M0 0 C1.32 0 2.64 0 4 0 C4.33 1.65 4.66 3.3 5 5 C6.32 5 7.64 5 9 5 C9.33 8.63 9.66 12.26 10 16 C10.33 14.02 10.66 12.04 11 10 C11.66 10 12.32 10 13 10 C13 11.32 13 12.64 13 14 C13.66 14 14.32 14 15 14 C15 20.6 15 27.2 15 34 C12.36 34.99 9.72 35.98 7 37 C5.37351541 37.72584909 3.74827406 38.45449908 2.125 39.1875 C-2.98954143 41.27620248 -7.54139046 41.41810626 -13 41 C-12.67 40.01 -12.34 39.02 -12 38 C-12.72325801 35.35936827 -12.72325801 35.35936827 -13.875 32.5625 C-15.10931915 29.39038611 -16.26092859 26.32582135 -17 23 C-12.62573634 23.4860293 -10.96133065 24.8361852 -8 28 C-7.97494385 27.34926514 -7.9498877 26.69853027 -7.92407227 26.02807617 C-7.80806298 23.08101954 -7.68535885 20.1342787 -7.5625 17.1875 C-7.52318359 16.16333984 -7.48386719 15.13917969 -7.44335938 14.08398438 C-7.40146484 13.10107422 -7.35957031 12.11816406 -7.31640625 11.10546875 C-7.26141968 9.74651489 -7.26141968 9.74651489 -7.20532227 8.36010742 C-7 6 -7 6 -6 3 C-4.35 3.33 -2.7 3.66 -1 4 C-0.67 2.68 -0.34 1.36 0 0 Z " fill="#261811" transform="translate(285,26)"/>
<path d="M0 0 C6.875 3.75 6.875 3.75 8 6 C8.928125 6.37125 8.928125 6.37125 9.875 6.75 C13.09065778 8.6415634 13.7501767 10.50049475 15 14 C15.73298429 22.53403141 15.73298429 22.53403141 14 26 C13.9283265 28.55157655 13.90691558 31.07472971 13.9375 33.625 C13.94201172 34.33140625 13.94652344 35.0378125 13.95117188 35.765625 C13.96296125 37.51045275 13.98089676 39.255237 14 41 C13.34773438 41.1959375 12.69546875 41.391875 12.0234375 41.59375 C5.14693692 43.94677085 1.71805947 46.77300609 -2 53 C-2.66 52.67 -3.32 52.34 -4 52 C-3.67 49.69 -3.34 47.38 -3 45 C-4.65 44.34 -6.3 43.68 -8 43 C-8.31407755 36.46253387 -8.41164044 31.77354536 -5 26 C-4.67 24.783125 -4.34 23.56625 -4 22.3125 C-3 19 -3 19 -1.3125 17.4375 C-0.879375 16.963125 -0.44625 16.48875 0 16 C-0.14090084 12.16733708 -0.14090084 12.16733708 -2 9 C-1.9140625 7.1875 -1.9140625 7.1875 -1.625 5 C-1.53476563 4.278125 -1.44453125 3.55625 -1.3515625 2.8125 C-1 1 -1 1 0 0 Z " fill="#F7F7F7" transform="translate(230,9)"/>
<path d="M0 0 C1.04027344 -0.01933594 2.08054688 -0.03867188 3.15234375 -0.05859375 C6.72274722 0.55005221 7.69650089 1.78899354 10.0625 4.4375 C14.51292542 6.08580571 18.3316104 6.6682751 23.0625 6.4375 C22.45921875 6.31632812 21.8559375 6.19515625 21.234375 6.0703125 C20.43515625 5.90273437 19.6359375 5.73515625 18.8125 5.5625 C18.02359375 5.40007812 17.2346875 5.23765625 16.421875 5.0703125 C14.09418856 4.44599925 12.17218048 3.58911458 10.0625 2.4375 C10.0625 1.7775 10.0625 1.1175 10.0625 0.4375 C18.3125 0.4375 26.5625 0.4375 35.0625 0.4375 C33.88992432 6.30037842 31.75709664 8.94602957 28.0625 13.4375 C27.32 14.4275 26.5775 15.4175 25.8125 16.4375 C21.77014645 19.37739349 17.912575 19.03839425 13.0625 18.4375 C12.4025 18.1075 11.7425 17.7775 11.0625 17.4375 C11.3925 18.4275 11.7225 19.4175 12.0625 20.4375 C10.37695405 22.12304595 8.37545927 21.76898937 6.0625 21.875 C-0.60134508 21.85760093 -5.27321286 19.10178714 -9.9375 14.4375 C-9.92581553 12.64393446 -9.82829285 10.85056914 -9.6875 9.0625 C-9.58695313 7.59683594 -9.58695313 7.59683594 -9.484375 6.1015625 C-8.9375 3.4375 -8.9375 3.4375 -7.76171875 1.61328125 C-5.14418442 -0.07382332 -3.09152422 0.00382141 0 0 Z " fill="#F8F8F8" transform="translate(246.9375,107.5625)"/>
<path d="M0 0 C0.02690104 2.79173055 0.04679053 5.58320348 0.0625 8.375 C0.07087891 9.1690625 0.07925781 9.963125 0.08789062 10.78125 C0.11328125 16.7734375 0.11328125 16.7734375 -1 19 C-4 18 -4 18 -6 15 C-8.05925139 14.27617533 -8.05925139 14.27617533 -10 14 C-9.484375 14.928125 -8.96875 15.85625 -8.4375 16.8125 C-7 20 -7 20 -8 23 C-11 25 -11 25 -14 25 C-14 25.66 -14 26.32 -14 27 C-22.33014829 33.06821664 -34.03778797 33.54893821 -44 33 C-43.609375 30.5625 -43.609375 30.5625 -43 28 C-41.25 27 -41.25 27 -39 26 C-37.31002677 24.35697047 -35.64783606 22.68528688 -34 21 C-29.88984476 17.1989418 -25.90714689 13.74222914 -21 11 C-20.34 10.34 -19.68 9.68 -19 9 C-18.01 9 -17.02 9 -16 9 C-16 8.34 -16 7.68 -16 7 C-13.515625 5.2734375 -13.515625 5.2734375 -10.25 3.375 C-9.18265625 2.74335937 -8.1153125 2.11171875 -7.015625 1.4609375 C-4 0 -4 0 0 0 Z " fill="#FAB423" transform="translate(278,35)"/>
<path d="M0 0 C0.99 0.33 1.98 0.66 3 1 C3 1.66 3 2.32 3 3 C5.31 3 7.62 3 10 3 C12.76954714 7.7206529 13.38347976 11.17593874 13.3125 16.625 C13.30863281 17.91664062 13.30476563 19.20828125 13.30078125 20.5390625 C13.02489123 23.71358926 12.87231289 25.46791972 11 28 C8.0703125 29.99068509 5.74247168 30.22771976 2.25 30.125 C1.45078125 30.10695313 0.6515625 30.08890625 -0.171875 30.0703125 C-0.77515625 30.04710938 -1.3784375 30.02390625 -2 30 C-2 29.34 -2 28.68 -2 28 C-5.96 28.33 -9.92 28.66 -14 29 C-14 24.71 -14 20.42 -14 16 C-11.03 15.34 -8.06 14.68 -5 14 C-5 13.01 -5 12.02 -5 11 C-5.66 11 -6.32 11 -7 11 C-7.4375 8.875 -7.4375 8.875 -7 6 C-4.95580695 3.60411783 -2.74197701 1.56181132 0 0 Z " fill="#F8F7F7" transform="translate(342,43)"/>
<path d="M0 0 C0.55937256 0.47977295 1.11874512 0.9595459 1.69506836 1.45385742 C4.28188435 3.18908734 5.80479501 3.47549385 8.87890625 3.73828125 C10.26045898 3.88620117 10.26045898 3.88620117 11.66992188 4.03710938 C13.60110995 4.22096995 15.53347892 4.39281635 17.46679688 4.55273438 C20.10422395 4.84660326 22.48167571 5.15970025 25 6 C27.47289922 9.44095438 28.51936276 12.79442411 29 17 C28 18 28 18 24.9765625 18.1484375 C20.66411118 17.98746191 16.6102987 17.40321743 12.375 16.625 C11.63765625 16.49867188 10.9003125 16.37234375 10.140625 16.2421875 C6.25351606 15.54557299 2.52065159 14.86865354 -1 13 C-2.10737141 9.36149395 -2.23691853 6.58706372 -1 3 C-0.67 2.01 -0.34 1.02 0 0 Z " fill="#F9F9F9" transform="translate(12,344)"/>
<path d="M0 0 C0.89267578 0.00966797 1.78535156 0.01933594 2.70507812 0.02929688 C4.09823242 0.06700195 4.09823242 0.06700195 5.51953125 0.10546875 C6.45990234 0.11900391 7.40027344 0.13253906 8.36914062 0.14648438 C10.69068163 0.18183779 13.01106778 0.23118201 15.33203125 0.29296875 C15.82012371 1.56287636 16.30522114 2.83393537 16.7890625 4.10546875 C17.19475464 5.16701172 17.19475464 5.16701172 17.60864258 6.25 C18.4299288 8.56944754 18.95237286 10.86315505 19.33203125 13.29296875 C13.90823257 14.34090897 9.5994824 14.13369138 4.20703125 13.04296875 C3.51738281 12.92050781 2.82773438 12.79804688 2.1171875 12.671875 C-2.0258813 11.8717795 -5.19878556 10.69574932 -8.66796875 8.29296875 C-7.87457288 2.42183934 -6.1118056 -0.11678609 0 0 Z " fill="#FBFBFB" transform="translate(172.66796875,337.70703125)"/>
<path d="M0 0 C3.22238743 0.26853229 4.7416643 0.77118838 7.1875 2.9375 C9.78567433 7.3275187 9.21593646 10.8536048 8.75 15.8125 C8.68425781 16.69615234 8.61851562 17.57980469 8.55078125 18.49023438 C8.3864541 20.66170028 8.19581403 22.83114674 8 25 C6.02 25.99 6.02 25.99 4 27 C-1.875 22.375 -1.875 22.375 -3 19 C-0.69 19.66 1.62 20.32 4 21 C4 20.34 4 19.68 4 19 C3.21625 18.9175 2.4325 18.835 1.625 18.75 C-1 18 -1 18 -2.14453125 16.265625 C-3.10957801 13.70979341 -3.30002695 11.72744052 -3.3125 9 C-3.32925781 8.154375 -3.34601563 7.30875 -3.36328125 6.4375 C-2.93244007 3.54669465 -1.90529726 2.17173725 0 0 Z " fill="#E4E2E2" transform="translate(212,25)"/>
<path d="M0 0 C0.99 0.33 1.98 0.66 3 1 C2.97905273 1.68102783 2.95810547 2.36205566 2.93652344 3.0637207 C2.85342548 6.14649722 2.80136046 9.22903837 2.75 12.3125 C2.71648437 13.38435547 2.68296875 14.45621094 2.6484375 15.56054688 C2.63554687 16.58857422 2.62265625 17.61660156 2.609375 18.67578125 C2.58842773 19.62364502 2.56748047 20.57150879 2.54589844 21.5480957 C2.77851167 24.14402672 2.77851167 24.14402672 4.90332031 25.80957031 C7.15499983 27.08800409 8.43915199 27.35504845 11 27.4375 C16.88879769 27.91841848 22.65031213 29.48147811 28 32 C28.33 32.99 28.66 33.98 29 35 C23.23915991 34.22193292 17.52606579 33.25800645 11.8125 32.1875 C10.92369141 32.03474609 10.03488281 31.88199219 9.11914062 31.72460938 C5.51116476 31.03879578 2.59209694 30.34739926 -0.58984375 28.48046875 C-2.85082281 24.50340032 -2.49803707 20.61261529 -2.375 16.125 C-2.37371094 15.23941406 -2.37242187 14.35382813 -2.37109375 13.44140625 C-2.3059455 8.58424253 -1.87854874 4.55360215 0 0 Z " fill="#2C2121" transform="translate(188,142)"/>
<path d="M0 0 C0.99 0.33 1.98 0.66 3 1 C-1.28239551 8.82002658 -8.39615038 13.00823247 -16.83203125 15.4765625 C-24.5112238 17.33063782 -32.14398059 17.10778075 -40 17 C-39.67 16.34 -39.34 15.68 -39 15 C-36.72048022 14.62503983 -34.42400623 14.35166259 -32.125 14.125 C-20.45085103 12.76737973 -8.22040734 8.87909383 0 0 Z " fill="#312626" transform="translate(264,69)"/>
<path d="M0 0 C1 3 1 3 0.03125 5.1640625 C-5.6062701 14.22436266 -11.77944004 23.06449309 -20 30 C-20.66 30 -21.32 30 -22 30 C-21.67 28.35 -21.34 26.7 -21 25 C-20.01 24.67 -19.02 24.34 -18 24 C-16.93407422 22.17127043 -16.93407422 22.17127043 -16 20 C-14.54639221 17.71575919 -13.0282426 15.48243475 -11.5078125 13.2421875 C-10.29561566 11.43959426 -9.13848191 9.60003311 -8 7.75 C-5.64117176 4.50661117 -3.16480728 2.4455329 0 0 Z " fill="#271C1C" transform="translate(218,110)"/>
<path d="M0 0 C0.66 0 1.32 0 2 0 C5.33405479 5.27892008 5.56709328 9.93646412 5 16 C4.67 16.66 4.34 17.32 4 18 C3.9283265 20.55157655 3.90691558 23.07472971 3.9375 25.625 C3.94201172 26.33140625 3.94652344 27.0378125 3.95117188 27.765625 C3.96296125 29.51045275 3.98089676 31.255237 4 33 C0.535 33.495 0.535 33.495 -3 34 C-3.495 32.515 -3.495 32.515 -4 31 C-2.02 31 -0.04 31 2 31 C1.34 27.7 0.68 24.4 0 21 C-1.65 21 -3.3 21 -5 21 C-5.33 20.34 -5.66 19.68 -6 19 C-4.02 18.67 -2.04 18.34 0 18 C-1.98 18 -3.96 18 -6 18 C-3.64722731 15.27573689 -1.37503669 14.1858237 2 13 C1.85769192 11.58297487 1.71099254 10.1663904 1.5625 8.75 C1.48128906 7.96109375 1.40007812 7.1721875 1.31640625 6.359375 C1.02365007 4.17635361 0.57935581 2.1226818 0 0 Z " fill="#2D2222" transform="translate(240,17)"/>
<path d="M0 0 C0.66 1.98 1.32 3.96 2 6 C2.99 6 3.98 6 5 6 C5 6.66 5 7.32 5 8 C2.51706286 9.24146857 0.51739704 9.28828656 -2.25 9.5 C-6.21190038 9.82798912 -10.08953206 10.26018174 -14 11 C-12.625 9.5 -12.625 9.5 -11 8 C-10.34 8 -9.68 8 -9 8 C-10.39759905 4.45481116 -10.39759905 4.45481116 -12 1 C-8.0186217 -0.3271261 -4.14954773 -0.06915913 0 0 Z " fill="#EDECEC" transform="translate(295,52)"/>
<path d="M0 0 C1.4540277 0.62980484 2.89078274 1.30030669 4.3125 2 C9.0939127 4.30938981 12.73933278 4.33401062 18 4 C18 4.66 18 5.32 18 6 C12.77524247 8.61237877 5.48197834 7.40765834 0.125 5.625 C-1.25700887 5.1014742 -2.63301506 4.561587 -4 4 C-5.010625 3.608125 -6.02125 3.21625 -7.0625 2.8125 C-7.701875 2.544375 -8.34125 2.27625 -9 2 C-5.39741985 -0.4017201 -4.26038184 -0.47337576 0 0 Z " fill="#2F2424" transform="translate(168,269)"/>
<path d="M0 0 C2.4375 0.6875 2.4375 0.6875 5 2 C6 4.4375 6 4.4375 6 7 C3.79410172 9.88352717 1.56968879 10.64635937 -1.875 11.5625 C-5.35286396 12.52857332 -8.68097014 13.56175373 -12 15 C-10.41517419 10.24552256 -5.80818019 8.92727189 -1.5625 6.75 C-1.046875 6.5025 -0.53125 6.255 0 6 C0 4.02 0 2.04 0 0 Z " fill="#261A1A" transform="translate(274,70)"/>
<path d="M0 0 C0 0.99 0 1.98 0 3 C-2.35344806 3.33923576 -4.7075484 3.67150534 -7.0625 4 C-7.71927734 4.09539062 -8.37605469 4.19078125 -9.05273438 4.2890625 C-13.40138763 4.88887674 -17.61329071 5.09127093 -22 5 C-21.67 4.01 -21.34 3.02 -21 2 C-13.90961228 0.49025965 -7.24997422 -0.28307925 0 0 Z " fill="#261711" transform="translate(269,64)"/>
<path d="M0 0 C0.99 0.33 1.98 0.66 3 1 C-1.26587874 5.54109672 -6.03612328 9.24735246 -11 13 C-11.33 12.34 -11.66 11.68 -12 11 C-9.20482229 8.12011993 -6.34554952 5.32435285 -3.375 2.625 C-2.80523437 2.10164062 -2.23546875 1.57828125 -1.6484375 1.0390625 C-1.10445312 0.69617188 -0.56046875 0.35328125 0 0 Z " fill="#2E2323" transform="translate(95,243)"/>
<path d="M0 0 C2.96865509 2.54456151 4.3619751 5.48994665 6 9 C6.66 9 7.32 9 8 9 C8.66 7.68 9.32 6.36 10 5 C10.33 7.31 10.66 9.62 11 12 C10.01 12.33 9.02 12.66 8 13 C1.37724551 8.26946108 1.37724551 8.26946108 0 4 C0 2.68 0 1.36 0 0 Z " fill="#E3E2E2" transform="translate(203,46)"/>
<path d="M0 0 C0.66 0 1.32 0 2 0 C2.96070434 2.88211302 3.10581883 4.69850044 3.0625 7.6875 C3.05347656 8.49574219 3.04445312 9.30398437 3.03515625 10.13671875 C3.02355469 10.75160156 3.01195312 11.36648437 3 12 C0.69 12.33 -1.62 12.66 -4 13 C-4.33 12.01 -4.66 11.02 -5 10 C-3.02 10 -1.04 10 1 10 C0.67 6.7 0.34 3.4 0 0 Z " fill="#332D2D" transform="translate(241,38)"/>
<path d="M0 0 C0 0.99 0 1.98 0 3 C-0.63808594 3.18175781 -1.27617188 3.36351562 -1.93359375 3.55078125 C-2.75988281 3.80214844 -3.58617188 4.05351562 -4.4375 4.3125 C-5.67306641 4.67794922 -5.67306641 4.67794922 -6.93359375 5.05078125 C-7.61550781 5.36402344 -8.29742187 5.67726562 -9 6 C-9.33 6.99 -9.66 7.98 -10 9 C-10.66 8.67 -11.32 8.34 -12 8 C-10.51504771 3.28309273 -10.51504771 3.28309273 -9 1 C-3.02857143 -1.51428571 -3.02857143 -1.51428571 0 0 Z " fill="#F0EFEF" transform="translate(129,128)"/>
<path d="M0 0 C2 1 2 1 3 3 C-6.22551253 7.77676538 -6.22551253 7.77676538 -12 6 C-12 5.34 -12 4.68 -12 4 C-10.95199219 3.81824219 -10.95199219 3.81824219 -9.8828125 3.6328125 C-8.51769531 3.38144531 -8.51769531 3.38144531 -7.125 3.125 C-5.76761719 2.88136719 -5.76761719 2.88136719 -4.3828125 2.6328125 C-1.83494012 2.16955297 -1.83494012 2.16955297 0 0 Z " fill="#352A2A" transform="translate(209,273)"/>
<path d="M0 0 C0.7940625 -0.01417969 1.588125 -0.02835937 2.40625 -0.04296875 C4.5 0.1875 4.5 0.1875 6.5 2.1875 C5.5 3.1875 5.5 3.1875 2.77734375 3.28515625 C1.12412109 3.26775391 1.12412109 3.26775391 -0.5625 3.25 C-1.66722656 3.24097656 -2.77195313 3.23195313 -3.91015625 3.22265625 C-5.19212891 3.20525391 -5.19212891 3.20525391 -6.5 3.1875 C-6.5 2.5275 -6.5 1.8675 -6.5 1.1875 C-4.14653604 0.01076802 -2.6193967 0.02126134 0 0 Z " fill="#473D3D" transform="translate(54.5,305.8125)"/>
<path d="M0 0 C0.33 0.66 0.66 1.32 1 2 C5.61803076 3.91479324 10.07253501 4.49026224 15 5 C14.67 5.66 14.34 6.32 14 7 C3.44191344 6.40546697 3.44191344 6.40546697 -1 3 C-0.67 2.01 -0.34 1.02 0 0 Z " fill="#463C3C" transform="translate(256,108)"/>
<path d="M0 0 C0.66 0.99 1.32 1.98 2 3 C5.55672179 4.2188121 5.55672179 4.2188121 9 5 C9 5.33 9 5.66 9 6 C7.39602723 6.16852247 5.7918131 6.33474886 4.1875 6.5 C3.29417969 6.5928125 2.40085937 6.685625 1.48046875 6.78125 C-1 7 -1 7 -4 7 C-2.68 4.69 -1.36 2.38 0 0 Z " fill="#F2F2F2" transform="translate(19,332)"/>
<path d="M0 0 C0 0.66 0 1.32 0 2 C-4.70461323 3.86132673 -8.8757696 4.2509496 -13.875 4.125 C-14.56335938 4.11597656 -15.25171875 4.10695313 -15.9609375 4.09765625 C-17.64077838 4.07432513 -19.32043746 4.03846326 -21 4 C-21 3.67 -21 3.34 -21 3 C-20.18015625 2.95101562 -19.3603125 2.90203125 -18.515625 2.8515625 C-17.43796875 2.77679688 -16.3603125 2.70203125 -15.25 2.625 C-14.18265625 2.55539063 -13.1153125 2.48578125 -12.015625 2.4140625 C-7.51719692 1.79640269 -4.68980645 -0.2605448 0 0 Z " fill="#534A4A" transform="translate(236,95)"/>
<path d="M0 0 C2.97 0.99 5.94 1.98 9 3 C8.67 3.99 8.34 4.98 8 6 C2.375 6.25 2.375 6.25 -1 4 C-0.67 2.68 -0.34 1.36 0 0 Z " fill="#3C3232" transform="translate(179,93)"/>
<path d="M0 0 C2.475 0.495 2.475 0.495 5 1 C5 4.3 5 7.6 5 11 C4.01 10.34 3.02 9.68 2 9 C1.8125 5.375 1.8125 5.375 2 2 C1.34 2 0.68 2 0 2 C0 1.34 0 0.68 0 0 Z " fill="#241919" transform="translate(212,27)"/>
<path d="M0 0 C0.97839844 0.52400391 0.97839844 0.52400391 1.9765625 1.05859375 C6.63695125 3.48502034 10.67136947 5.57931864 16 6 C16 6.33 16 6.66 16 7 C6.32231944 7.86066329 6.32231944 7.86066329 2.375 4.625 C0 2 0 2 0 0 Z " fill="#3C3131" transform="translate(162,287)"/>
<path d="M0 0 C-2.51066469 3.05906926 -4.90059933 3.75191278 -8.6875 4.6875 C-9.68136719 4.93886719 -10.67523438 5.19023437 -11.69921875 5.44921875 C-12.45847656 5.63097656 -13.21773437 5.81273437 -14 6 C-10.02525205 1.80181947 -5.8981856 -0.52042814 0 0 Z " fill="#3C3232" transform="translate(187,250)"/>
<path d="M0 0 C3.4375 0.8125 3.4375 0.8125 7 2 C7.33 2.99 7.66 3.98 8 5 C1.375 4.25 1.375 4.25 -2 2 C-1.34 2 -0.68 2 0 2 C0 1.34 0 0.68 0 0 Z " fill="#403636" transform="translate(209,172)"/>
<path d="M0 0 C-4.95 0 -9.9 0 -15 0 C-14.67 -0.66 -14.34 -1.32 -14 -2 C-8.11531196 -3.04405756 -5.17307919 -3.44871946 0 0 Z " fill="#3F2F22" transform="translate(251,70)"/>
<path d="M0 0 C3.36591427 2.72478774 4.44226276 6.06856792 6 10 C3.54896452 9.01958581 2.23241214 8.3486182 0.75 6.125 C0 4 0 4 0 0 Z " fill="#DCDADA" transform="translate(203,46)"/>
<path d="M0 0 C0.66 0.33 1.32 0.66 2 1 C2 1.66 2 2.32 2 3 C-2.38461538 6 -2.38461538 6 -5 6 C-3.86695008 2.60085025 -2.87481525 1.94745549 0 0 Z " fill="#392F2F" transform="translate(267,79)"/>
<path d="M0 0 C0.33 0.99 0.66 1.98 1 3 C0.01 4.485 0.01 4.485 -1 6 C-1.99 6 -2.98 6 -4 6 C-3.6875 4.125 -3.6875 4.125 -3 2 C-2.01 1.34 -1.02 0.68 0 0 Z " fill="#2C2121" transform="translate(231,110)"/>
</svg>
